# xmcd
#
# Track frame offsets: 
#        150
#        21703
#        51852
#        94429
#        118337
#        131493
#        151956
#        176567
#        211634
#        227057
#        242543
#
# Disc length: 3573 seconds
#
# Revision: 0
# Processed by: cddbd v1.5.1PL0 Copyright (c) Steve Scherf et al.
# Submitted via: ExactAudioCopy v0.95a5
#
DISCID=960df30b
DTITLE=Carlos Johnson - In and Out
DYEAR=1900
DGENRE=Blues
TTITLE0=Blues Man
TTITLE1=Leaving on the Next Train
TTITLE2=Don't Ever Leave Me
TTITLE3=It Ain't No Fun to Me
TTITLE4=In and Out
TTITLE5=Spirit
TTITLE6=You Need a Man
TTITLE7=Key to the Highway
TTITLE8=Lisa
TTITLE9=Do Do Do
TTITLE10=Delta Blues
EXTD=
EXTT0=
EXTT1=
EXTT2=
EXTT3=
EXTT4=
EXTT5=
EXTT6=
EXTT7=
EXTT8=
EXTT9=
EXTT10=
PLAYORDER=
